<?xml version="1.0" encoding="UTF-8" standalone="no"?>
<svg
   version="1.1"
   width="300"
   height="328"
   id="svg1"
   sodipodi:docname="gallo2_outline.svg"
   inkscape:version="1.3.2 (091e20ef0f, 2023-11-25)"
   xmlns:inkscape="http://www.inkscape.org/namespaces/inkscape"
   xmlns:sodipodi="http://sodipodi.sourceforge.net/DTD/sodipodi-0.dtd"
   xmlns="http://www.w3.org/2000/svg"
   xmlns:svg="http://www.w3.org/2000/svg">
  <defs
     id="defs1" />
  <sodipodi:namedview
     id="namedview1"
     pagecolor="#ffffff"
     bordercolor="#000000"
     borderopacity="0.25"
     inkscape:showpageshadow="2"
     inkscape:pageopacity="0.0"
     inkscape:pagecheckerboard="0"
     inkscape:deskcolor="#d1d1d1"
     inkscape:zoom="1.95187"
     inkscape:cx="46.878122"
     inkscape:cy="121.16586"
     inkscape:window-width="1920"
     inkscape:window-height="1015"
     inkscape:window-x="0"
     inkscape:window-y="0"
     inkscape:window-maximized="1"
     inkscape:current-layer="svg1" />
  <path
     id="path1"
     style="fill:#000000"
     d="M -14.15625 -4.2441406 C -24.578542 -4.6641572 -34.810538 0.394573 -43 8 C -45.800931 11.539697 -49.194474 15.410154 -48.839844 20.132812 C -46.847481 24.562346 -41.878397 26.664613 -37.5625 28.3125 L -35 31 C -32.706788 32.994097 -32.023351 33.915577 -31.1875 36.9375 C -30.993863 40.100235 -31.383878 40.739568 -33.087891 43.345703 C -35.146487 44.171458 -35.250008 44.000005 -39.3125 46.5 C -41.20805 47.667118 -43.103912 48.833755 -45 50 C -62.930913 60.4597 -78.699452 73.2708 -93.074219 88.222656 C -98.743209 94.168954 -104.40086 100.15531 -109 107 L -111 107 C -121.05939 76.927714 -134.06106 41.785627 -163.97656 26.28125 L -167 25 C -174.07422 21.85474 -180.16041 20.523775 -187.91602 20.550781 L -191.3125 20.625 C -205.62251 20.641179 -217.77437 24.753768 -229 34 L -231 36 C -237.53553 43.145525 -242.62867 51.659994 -246.55078 60.492188 C -252.34857 76.036703 -259.49709 98.836483 -253 115 C -250.22952 117.27179 -248.14586 117.97147 -244.625 118.66016 C -237.09803 119.49559 -230.38614 119.98627 -224.48438 125.21875 C -215.67827 144.55131 -215.67752 144.55066 -215.21484 166.49219 C -214.08467 189.33488 -214.05071 215.06799 -203.9375 236.0625 C -201.73852 240.33144 -200.19766 244.36078 -198.9375 249 C -197.69636 253.65042 -196.27198 258.08677 -194.5 262.5625 C -192.73094 266.99601 -191.22447 271.42108 -189.875 276 C -188.99353 279.12023 -188.16762 281.71561 -186.51953 284.51172 C -184.91071 286.99335 -184.91071 286.99335 -183.83203 289.89453 L -182.8125 292.8125 L -181.76953 295.76953 L -181 298 L -176.90234 306.30273 L -176 308.3125 C -174.87536 311.05891 -173.68204 313.54775 -172 316 C -167.07873 321.46487 -162.10031 322.7641 -154.91992 323.23828 L -151.4375 323.375 C -129.71905 324.55021 -107.99155 324.23044 -86.267578 323.42383 C -79.86218 323.18096 -73.479972 322.93681 -67.070312 323.10938 C -56.601099 323.40769 -47.513149 322.90807 -38 318 C -34.944341 315.3476 -33.222735 314.04686 -32.375 310.0625 L -32 307 C -30.477269 303.97562 -29.050221 301.16152 -28.042969 297.92188 C -25.334674 287.88018 -20.885419 280.53358 -14.8125 272.1875 C -12.870705 269.59461 -11.032779 267.05453 -9.3632812 264.27734 L -8 262 L -5 259 L -2 256 L 4 248 C 4.9020073 246.00684 4.9020116 246.00684 6.1992188 244.55469 L 7.6875 242.875 C 8.7911946 241.58293 9.8953828 240.29128 11 239 C 14.949729 234.58503 17.271061 230.87579 18.6875 225.0625 C 19.800903 219.89268 21.12817 214.94823 23 210 C 31.449479 191.28252 30.994383 168.41885 26.65625 148.65625 L 26 146 C 28.737447 145.77562 31.320302 145.55095 34 145 C 35.96484 143.67969 35.964846 143.67969 37 142 C 38.322818 132.88726 34.536089 125.2755 29.539062 117.81836 L 27.929688 115.51562 C 26.834583 113.94341 25.733004 112.37566 24.625 110.8125 C 21.132283 106.20122 18.654756 102.75937 18.585938 96.824219 C 19.427882 83.174198 23.456131 68.741329 33.9375 59.375 C 36.999994 57.000004 37.000004 56.999996 39.152344 54.882812 L 41.375 52.5 L 43.460938 50.28125 C 45.284857 47.577777 45.479766 46.198433 45 43 C 37.79449 35.79449 27.341645 33.21149 17.570312 32.191406 L 15 32 C 14.794614 29.872574 14.559207 27.748031 14.3125 25.625 C 12.743321 14.889648 8.7580815 6.668434 0 0 C -4.6422423 -2.7298235 -9.4188449 -4.053224 -14.15625 -4.2441406 z M -16.072266 -2.2597656 C -11.59285 -2.3814791 -7.1055429 -1.3775891 -3.0917969 0.609375 C -1.1964188 1.4112626 0.34963524 2.7869218 1.8398438 4.171875 C 6.4019592 8.3695584 9.5600159 13.96187 11.115234 19.941406 C 11.307254 20.639934 11.518335 21.539346 11.646484 22.123047 C 12.518934 25.984263 12.733651 29.948062 13.181641 33.871094 C 16.016738 34.066245 18.855109 34.268439 21.660156 34.742188 C 28.843579 35.870003 36.135136 38.079288 41.8125 42.800781 C 42.326149 43.34415 43.265834 43.702214 43.177734 44.570312 C 43.436624 46.14698 42.852623 47.699522 41.933594 48.960938 C 39.593916 51.422807 37.407814 54.067763 34.748047 56.203125 C 31.82775 58.318849 29.326993 60.962166 27.171875 63.84375 C 21.283661 71.780169 18.321438 81.507983 17.099609 91.21875 C 16.78336 94.169653 16.302861 97.167014 16.875 100.11914 C 17.554189 104.44785 20.068743 108.16335 22.6875 111.5625 C 25.682047 115.84397 28.872308 120.016 31.353516 124.62891 C 33.998483 129.44358 35.733712 134.95394 35.164062 140.49609 C 35.241522 141.72778 34.155283 142.53601 33.214844 143.11328 C 30.010127 143.74063 26.741691 143.90838 23.496094 144.20703 C 24.377693 147.66246 25.211505 151.1316 25.802734 154.65039 C 27.673673 165.36357 28.317271 176.57365 27.007812 187.47852 C 26.937923 188.02983 26.832656 188.81341 26.785156 189.2207 C 25.856907 195.72651 24.21631 202.156 21.601562 208.19531 C 19.566865 213.07752 18.191534 218.2106 17.015625 223.35938 C 16.191016 227.64929 14.381954 231.75445 11.623047 235.1543 C 9.542399 237.68687 7.3851628 240.15513 5.234375 242.62891 C 4.0788162 243.8695 2.9511982 245.17645 2.3554688 246.79102 C 0.57277053 249.332 -1.3675693 251.77838 -3.2109375 254.2832 C -4.5135862 255.81493 -6.0419751 257.1509 -7.4335938 258.60547 C -8.4377827 259.67839 -9.6666156 260.57715 -10.296875 261.94141 C -12.803532 266.3775 -16.035649 270.32858 -18.916016 274.51562 C -23.384201 280.91255 -27.159227 287.8644 -29.390625 295.36914 C -30.337254 299.19161 -32.070357 302.74479 -33.853516 306.23438 C -34.233315 307.66026 -34.123325 309.21227 -34.583984 310.63477 C -35.185284 313.07927 -37.232227 314.6959 -39.046875 316.25977 C -42.571381 318.13694 -46.422431 319.40304 -50.341797 320.16602 C -51.015646 320.30078 -51.896166 320.43814 -52.447266 320.52734 C -56.560342 321.11851 -60.727127 321.22865 -64.876953 321.15625 C -73.649214 320.84674 -82.417773 321.29955 -91.183594 321.58984 C -109.76794 322.22434 -128.49356 322.42506 -147.06641 321.58789 C -151.63879 321.26714 -156.27476 321.45984 -160.77539 320.46289 C -164.34479 319.73929 -167.61281 317.82213 -170.06836 315.14453 C -171.42792 313.50066 -172.34908 311.53357 -173.26172 309.61523 C -174.73282 306.03182 -176.50924 302.58853 -178.21875 299.11523 C -179.24279 297.31414 -179.78146 295.31181 -180.49219 293.37891 C -181.5278 290.65281 -182.24207 287.7722 -183.70117 285.22852 C -185.12511 283.11531 -186.29522 280.83228 -187.06055 278.39648 C -188.42424 273.87378 -189.76773 269.33882 -191.44727 264.91992 C -193.25429 260.30375 -195.0203 255.66282 -196.33984 250.87891 C -197.56997 246.22353 -199.01128 241.60346 -201.11914 237.26172 C -204.42822 230.84026 -206.763 223.95372 -208.38477 216.92383 C -211.13879 204.88356 -211.98584 192.58582 -212.58203 180.30469 C -212.81919 174.4638 -213.18944 168.62651 -213.29492 162.78125 C -213.52378 155.62052 -213.42417 148.30557 -215.57617 141.39258 C -217.46592 135.41897 -220.26162 129.79041 -222.80664 124.08008 C -223.78696 123.08458 -224.95714 122.24497 -226.13281 121.47461 C -230.8762 118.39122 -236.59816 117.50943 -242.11523 116.92383 C -245.36975 116.65587 -248.76082 115.91369 -251.33008 113.77148 C -252.12815 111.68981 -252.67361 109.5143 -253.02734 107.31445 C -254.31799 99.022511 -253.15436 90.570513 -251.30859 82.455078 C -251.04882 81.338062 -250.72789 80.064062 -250.4707 79.050781 C -248.90591 73.109596 -246.939 67.282448 -244.80078 61.525391 C -240.94929 52.728434 -235.93644 44.356624 -229.42969 37.257812 C -227.51702 35.164339 -225.19789 33.512223 -222.87109 31.914062 C -222.05575 31.365218 -220.9879 30.682612 -220.01758 30.113281 C -212.44476 25.577265 -203.70875 23.14146 -194.91211 22.722656 C -191.75666 22.624558 -188.59833 22.504263 -185.44141 22.595703 C -184.9807 22.607013 -184.29112 22.648133 -183.68555 22.689453 C -178.0398 23.048372 -172.54209 24.663876 -167.41016 27 C -164.56034 28.081219 -161.9222 29.625461 -159.36914 31.275391 C -148.9099 38.020917 -140.63012 47.672879 -134.13477 58.195312 C -133.05604 59.943853 -131.95482 61.833328 -131 63.556641 C -128.12225 68.742408 -125.47043 74.362585 -123.16602 79.789062 C -119.09024 89.366497 -115.74319 99.13109 -112.43555 109 L -107.94727 109 C -104.60701 103.95481 -100.70484 99.311069 -96.591797 94.882812 C -86.332447 83.677105 -75.165551 73.267804 -62.939453 64.230469 C -58.532778 60.966304 -53.968509 57.847418 -49.277344 54.919922 C -45.345858 52.511715 -41.381783 50.154479 -37.466797 47.71875 C -35.716189 46.581035 -33.825567 45.695663 -31.855469 45.011719 C -31.284069 44.378673 -30.868955 43.547341 -30.390625 42.816406 C -29.232096 41.06327 -29.007393 38.904783 -29.189453 36.857422 C -29.606663 34.736971 -30.480326 32.61816 -32.021484 31.052734 C -33.549893 29.633893 -34.993686 28.1321 -36.421875 26.611328 C -39.822392 25.276159 -43.479042 23.953006 -45.912109 21.085938 C -46.261719 20.529678 -46.904381 20.003341 -46.863281 19.298828 C -46.746201 16.022508 -44.613021 13.307851 -42.689453 10.826172 C -41.544864 9.1572205 -39.922979 7.9275242 -38.369141 6.6640625 C -32.020677 1.6433982 -24.274167 -2.041892 -16.072266 -2.2597656 z "
     transform="translate(255,4)" />
</svg>
