<?xml version="1.0" encoding="UTF-8" standalone="no"?>
<svg
   version="1.1"
   width="392"
   height="404"
   id="svg1"
   sodipodi:docname="GALLO_Contour.svg"
   inkscape:version="1.3.2 (091e20ef0f, 2023-11-25)"
   xmlns:inkscape="http://www.inkscape.org/namespaces/inkscape"
   xmlns:sodipodi="http://sodipodi.sourceforge.net/DTD/sodipodi-0.dtd"
   xmlns="http://www.w3.org/2000/svg"
   xmlns:svg="http://www.w3.org/2000/svg">
  <defs
     id="defs1" />
  <sodipodi:namedview
     id="namedview1"
     pagecolor="#ffffff"
     bordercolor="#000000"
     borderopacity="0.25"
     inkscape:showpageshadow="2"
     inkscape:pageopacity="0.0"
     inkscape:pagecheckerboard="0"
     inkscape:deskcolor="#d1d1d1"
     inkscape:zoom="1.8341388"
     inkscape:cx="93.504375"
     inkscape:cy="78.238354"
     inkscape:window-width="1920"
     inkscape:window-height="1015"
     inkscape:window-x="0"
     inkscape:window-y="0"
     inkscape:window-maximized="1"
     inkscape:current-layer="svg1" />
  <path
     d="m 0,0 c 6.9994974,5.5995979 12.520209,11.275471 15.402344,19.921875 -2.087309,5.326536 -6.1173526,7.089855 -10.9375003,9.5625 -7.9313762,3.757146 -7.9313762,3.757146 -12.8476562,10.621094 l -0.2773438,2.253906 -0.3476562,2.246094 c 0.6371311,3.598273 2.6836626,4.983657 5.4101562,7.316406 1.9367061,1.334649 3.91974018,2.60388 5.9375001,3.8125 l 1.7011718,1.029785 c 2.9242588,1.757632 5.8760609,3.454449 8.8652344,5.099121 8.477373,4.688603 15.945134,10.001992 23.496094,16.058594 2.330297,1.781382 4.664443,3.557556 7,5.332031 2.491584,2.077943 4.714353,4.365491 7,6.667969 2.749852,2.585886 24.526988,23.588735 27.1875,27.000005 3.778063,4.74903 7.711422,9.28374 11.800781,13.76562 1.706057,1.89488 3.342601,3.81805 4.949219,5.79687 1.827242,2.48401 1.827242,2.48401 4.0625,3.4375 0.265547,-1.25296 0.531093,-2.50593 0.804687,-3.79687 3.835479,-17.20929 9.522869,-33.90541 16.195309,-50.203125 0.29907,-0.731865 0.59813,-1.46373 0.90625,-2.217773 5.98132,-14.479318 12.44679,-28.109053 23.09375,-39.782227 0.69739,-0.790195 1.39477,-1.580391 2.11328,-2.394531 11.83182,-12.697028 28.8043,-20.955699 46.13672,-21.859375 20.64276,-0.706885 40.28415,4.727293 56.09766,18.519531 5.56167,5.733677 10.11936,12.177771 14.65234,18.734375 l 2.25391,3.148437 c 10.04096,14.973017 14.73215,33.456355 18.74609,50.851568 0.36932,1.58554 0.36932,1.58554 0.7461,3.20312 1.67408,8.08178 2.9765,17.16818 -0.7461,24.79687 -2.47776,2.47777 -3.73501,2.45153 -7.16406,2.92969 -1.04027,0.15598 -2.08055,0.31196 -3.15234,0.47266 -2.18167,0.31167 -4.36396,0.61906 -6.54688,0.92187 -10.77427,1.63006 -19.15261,5.2554 -25.95312,14.01563 -9.33807,13.73482 -11.6018,29.0808 -14.52002,45.0791 -5.06054,27.30979 -11.33109,54.34093 -20.39795,80.61621 -4.19213,12.22089 -7.9424,24.51681 -11.39063,36.96484 -0.32318,1.16646 -0.32318,1.16646 -0.65289,2.35648 -2.59677,9.40723 -5.02642,18.83621 -7.28461,28.33102 -2.04909,8.54099 -4.66556,16.79309 -7.625,25.0625 -0.38099,1.06695 -0.76199,2.13389 -1.15454,3.23316 -3.54138,9.59959 -3.54138,9.59959 -6.15796,12.01684 -2.88537,0.55829 -5.4441,0.85985 -8.35547,1.01172 -0.84081,0.0583 -1.68162,0.11666 -2.54791,0.17676 -2.7605,0.18576 -5.52177,0.34327 -8.28412,0.49902 -1.92136,0.12058 -3.84267,0.24209 -5.76391,0.36451 -16.34114,1.01329 -32.67741,1.68695 -49.048586,1.94799 -1.379239,0.0271 -2.758471,0.0547 -4.137696,0.0825 -17.419684,0.33377 -34.674677,-0.12644 -52.049804,-1.45752 -0.839512,-0.0631 -1.679024,-0.12624 -2.543976,-0.19128 -2.396413,-0.1843 -4.791494,-0.38038 -7.186493,-0.58215 -0.700616,-0.0553 -1.401231,-0.11064 -2.123077,-0.16764 C 11.776143,391.38891 11.776143,391.38891 7.6445312,386.51172 3.7745781,381.64303 2.2128417,376.39374 0.52734375,370.48437 -6.408481,348.20889 -18.896618,329.1292 -34.238281,311.64453 c -2.47223,-2.85289 -4.701016,-5.80869 -6.917969,-8.85937 -1.620067,-2.09424 -3.38509,-3.99019 -5.191406,-5.92579 -20.738594,-23.10871 -30.706273,-50.98001 -30.5,-81.75 0.0018,-0.76164 0.0035,-1.52328 0.0054,-2.30801 0.03552,-13.03705 0.753106,-25.92188 2.244629,-38.87949 l -3.324219,0.28907 c -1.454379,0.11259 -2.908809,0.22454 -4.363281,0.33593 -1.081846,0.0967 -1.081846,0.0967 -2.185547,0.19532 -4.24794,0.31035 -7.337575,0.19392 -11.126953,-1.82032 -1.73199,-1.73199 -1.295253,-3.94767 -1.375,-6.3125 0.177386,-15.02461 10.796991,-29.4295 19.476562,-41.09374 1.881719,-2.57091 3.678036,-5.16219 5.398438,-7.84375 0.484687,-0.74766 0.969375,-1.49532 1.46875,-2.26563 3.127167,-7.53363 -0.394978,-15.491133 -3.186035,-22.643555 C -79.168342,80.172353 -88.94398,72.017904 -99.707031,64.125 -107.9564,57.837644 -107.9564,57.837644 -110.59766,53.921875 c 0.14525,-2.455135 0.69676,-3.627144 2.24219,-5.527344 9.583696,-8.276827 21.402556,-11.337435 33.613283,-13.496094 3.15825,-0.725875 3.15825,-0.725875 5.015625,-2.757812 1.281892,-2.519428 1.668892,-4.541076 2.003906,-7.34375 1.928075,-11.614727 8.38055,-20.4162816 17.460937,-27.765625 C -35.307173,-13.482867 -14.43768,-10.160653 0,0 Z"
     fill="#000000"
     id="path1"
     transform="translate(110.59766,9.078125)"
     inkscape:label="path1"
     style="display:inline;fill:#ffffff"
     sodipodi:nodetypes="cccccccccccccccccccccccccccccccccccscccccccccccccccccccccccccccccccccccccccc" />
</svg>
